  0
SECTION
  2
HEADER
  9
$ACADVER
  1
AC1009
  9
$INSBASE
 10
0.0
 20
0.0
 30
0.0
  9
$EXTMIN
 10
0.0
 20
0.0
 30
0.0
  9
$EXTMAX
 10
0.0
 20
0.0
 30
0.0
  0
ENDSEC
  0
SECTION
  2
TABLES
  0
TABLE
  2
VPORT
 70
0
  0
ENDTAB
  0
TABLE
  2
LTYPE
 70
1
  0
LTYPE
  2
CONTINUOUS
 70
0
  3
Solid line
 72
65
 73
0
 40
0.0
  0
ENDTAB
  0
TABLE
  2
LAYER
 70
1
  0
LAYER
  2
0
 70
64
 62
7
  6
continuous
  0
ENDTAB
  0
TABLE
  2
STYLE
 70
1
  0
STYLE
  2
STANDARD
 70
0
 40
0
 41
1.0
 50
0.0
 71
0
 42
1
 3
ARIAL.TTF
 4

  0
ENDTAB
  0
TABLE
  2
VIEW
 70
0
  0
ENDTAB
  0
ENDSEC
  0
SECTION
  2
BLOCKS
  0
BLOCK
  8
0
  2
SHAPE2DVIEW
 70
0
 10
0.0
 20
0.0
 30
0.0
  3
SHAPE2DVIEW
  0
CIRCLE
  8
0
 62
0
 10
0.0
 20
0.0
 30
0.0
 40
100.0
  0
ARC
  8
0
 62
0
 10
-45.0
 20
-25.0
 30
0.0
 40
1.5
 50
-0.0
 51
-180.0
  0
LINE
  8
0
 62
0
 10
-46.5
 20
-25.0
 30
0.0
 11
-46.5
 21
-30.0
 31
0.0
  0
ARC
  8
0
 62
0
 10
-45.0
 20
-30.0
 30
0.0
 40
1.5
 50
-180.0
 51
-0.0
  0
LINE
  8
0
 62
0
 10
-43.5
 20
-25.0
 30
0.0
 11
-43.5
 21
-30.0
 31
0.0
  0
ARC
  8
0
 62
0
 10
-23.0
 20
8.9e-16
 30
0.0
 40
6.0
 50
-0.0
 51
180.0
  0
LINE
  8
0
 62
0
 10
-17.0
 20
1.62e-15
 30
0.0
 11
-17.0
 21
-30.0
 31
0.0
  0
LINE
  8
0
 62
0
 10
-29.0
 20
8.9e-16
 30
0.0
 11
-29.0
 21
-30.0
 31
0.0
  0
ARC
  8
0
 62
0
 10
-23.0
 20
-30.0
 30
0.0
 40
6.0
 50
-180.0
 51
-0.0
  0
CIRCLE
  8
0
 62
0
 10
-60.0
 20
60.0
 30
0.0
 40
1.5
  0
CIRCLE
  8
0
 62
0
 10
-30.0
 20
50.0
 30
0.0
 40
1.5
  0
ARC
  8
0
 62
0
 10
-45.0
 20
30.0
 30
0.0
 40
1.5
 50
-0.0
 51
-180.0
  0
LINE
  8
0
 62
0
 10
-46.5
 20
30.0
 30
0.0
 11
-46.5
 21
25.0
 31
0.0
  0
ARC
  8
0
 62
0
 10
-45.0
 20
25.0
 30
0.0
 40
1.5
 50
-180.0
 51
-0.0
  0
LINE
  8
0
 62
0
 10
-43.5
 20
30.0
 30
0.0
 11
-43.5
 21
25.0
 31
0.0
  0
CIRCLE
  8
0
 62
0
 10
-30.0
 20
70.0
 30
0.0
 40
1.5
  0
CIRCLE
  8
0
 62
0
 10
0.0
 20
60.0
 30
0.0
 40
1.5
  0
CIRCLE
  8
0
 62
0
 10
30.0
 20
70.0
 30
0.0
 40
1.5
  0
CIRCLE
  8
0
 62
0
 10
30.0
 20
50.0
 30
0.0
 40
1.5
  0
CIRCLE
  8
0
 62
0
 10
-60.0
 20
-60.0
 30
0.0
 40
1.5
  0
CIRCLE
  8
0
 62
0
 10
60.0
 20
-60.0
 30
0.0
 40
1.5
  0
CIRCLE
  8
0
 62
0
 10
28.0
 20
-48.0
 30
0.0
 40
1.5
  0
CIRCLE
  8
0
 62
0
 10
-28.0
 20
-48.0
 30
0.0
 40
1.5
  0
CIRCLE
  8
0
 62
0
 10
20.0
 20
22.0
 30
0.0
 40
1.5
  0
CIRCLE
  8
0
 62
0
 10
-20.0
 20
22.0
 30
0.0
 40
1.5
  0
ARC
  8
0
 62
0
 10
45.0
 20
-25.0
 30
0.0
 40
1.5
 50
-0.0
 51
-180.0
  0
LINE
  8
0
 62
0
 10
43.5
 20
-25.0
 30
0.0
 11
43.5
 21
-30.0
 31
0.0
  0
ARC
  8
0
 62
0
 10
45.0
 20
-30.0
 30
0.0
 40
1.5
 50
-180.0
 51
-0.0
  0
LINE
  8
0
 62
0
 10
46.5
 20
-25.0
 30
0.0
 11
46.5
 21
-30.0
 31
0.0
  0
ARC
  8
0
 62
0
 10
45.0
 20
30.0
 30
0.0
 40
1.5
 50
-0.0
 51
-180.0
  0
LINE
  8
0
 62
0
 10
43.5
 20
30.0
 30
0.0
 11
43.5
 21
25.0
 31
0.0
  0
ARC
  8
0
 62
0
 10
45.0
 20
25.0
 30
0.0
 40
1.5
 50
-180.0
 51
-0.0
  0
LINE
  8
0
 62
0
 10
46.5
 20
30.0
 30
0.0
 11
46.5
 21
25.0
 31
0.0
  0
ARC
  8
0
 62
0
 10
23.0
 20
8.9e-16
 30
0.0
 40
6.0
 50
-0.0
 51
180.0
  0
LINE
  8
0
 62
0
 10
29.0
 20
1.62e-15
 30
0.0
 11
29.0
 21
-30.0
 31
0.0
  0
LINE
  8
0
 62
0
 10
17.0
 20
8.9e-16
 30
0.0
 11
17.0
 21
-30.0
 31
0.0
  0
ARC
  8
0
 62
0
 10
23.0
 20
-30.0
 30
0.0
 40
6.0
 50
-180.0
 51
-0.0
  0
CIRCLE
  8
0
 62
0
 10
60.0
 20
60.0
 30
0.0
 40
1.5
  0
ARC
  8
0
 62
0
 10
-80.0
 20
-25.0
 30
0.0
 40
1.5
 50
-0.0
 51
180.0
  0
LINE
  8
0
 62
0
 10
-81.5
 20
-25.0
 30
0.0
 11
-81.5
 21
-30.0
 31
0.0
  0
ARC
  8
0
 62
0
 10
-80.0
 20
-30.0
 30
0.0
 40
1.5
 50
-180.0
 51
-0.0
  0
LINE
  8
0
 62
0
 10
-78.5
 20
-25.0
 30
0.0
 11
-78.5
 21
-30.0
 31
0.0
  0
ARC
  8
0
 62
0
 10
-80.0
 20
30.0
 30
0.0
 40
1.5
 50
-0.0
 51
-180.0
  0
LINE
  8
0
 62
0
 10
-81.5
 20
30.0
 30
0.0
 11
-81.5
 21
25.0
 31
0.0
  0
ARC
  8
0
 62
0
 10
-80.0
 20
25.0
 30
0.0
 40
1.5
 50
-180.0
 51
-0.0
  0
LINE
  8
0
 62
0
 10
-78.5
 20
30.0
 30
0.0
 11
-78.5
 21
25.0
 31
0.0
  0
ARC
  8
0
 62
0
 10
80.0
 20
-25.0
 30
0.0
 40
1.5
 50
-0.0
 51
-180.0
  0
LINE
  8
0
 62
0
 10
78.5
 20
-25.0
 30
0.0
 11
78.5
 21
-30.0
 31
0.0
  0
ARC
  8
0
 62
0
 10
80.0
 20
-30.0
 30
0.0
 40
1.5
 50
180.0
 51
-0.0
  0
LINE
  8
0
 62
0
 10
81.5
 20
-25.0
 30
0.0
 11
81.5
 21
-30.0
 31
0.0
  0
ARC
  8
0
 62
0
 10
80.0
 20
30.0
 30
0.0
 40
1.5
 50
-0.0
 51
-180.0
  0
LINE
  8
0
 62
0
 10
78.5
 20
30.0
 30
0.0
 11
78.5
 21
25.0
 31
0.0
  0
ARC
  8
0
 62
0
 10
80.0
 20
25.0
 30
0.0
 40
1.5
 50
-180.0
 51
-0.0
  0
LINE
  8
0
 62
0
 10
81.5
 20
30.0
 30
0.0
 11
81.5
 21
25.0
 31
0.0
  0
ARC
  8
0
 62
0
 10
-15.0
 20
-75.0
 30
0.0
 40
6.0
 50
90.0
 51
-90.0
  0
LINE
  8
0
 62
0
 10
-15.0
 20
-81.0
 30
0.0
 11
15.0
 21
-81.0
 31
0.0
  0
ARC
  8
0
 62
0
 10
15.0
 20
-75.0
 30
0.0
 40
6.0
 50
-90.0
 51
90.0
  0
LINE
  8
0
 62
0
 10
-15.0
 20
-69.0
 30
0.0
 11
15.0
 21
-69.0
 31
0.0
  0
ENDBLK
  0
ENDSEC
  0
SECTION
  2
ENTITIES
  0
INSERT
  2
SHAPE2DVIEW
  8
0
 62
0
 10
0.0
 20
0.0
 30
0.0
  0
ENDSEC
  0
EOF
