  0
SECTION
  2
HEADER
  9
$ACADVER
  1
AC1009
  9
$INSBASE
 10
0.0
 20
0.0
 30
0.0
  9
$EXTMIN
 10
0.0
 20
0.0
 30
0.0
  9
$EXTMAX
 10
0.0
 20
0.0
 30
0.0
  0
ENDSEC
  0
SECTION
  2
TABLES
  0
TABLE
  2
VPORT
 70
0
  0
ENDTAB
  0
TABLE
  2
LTYPE
 70
1
  0
LTYPE
  2
CONTINUOUS
 70
0
  3
Solid line
 72
65
 73
0
 40
0.0
  0
ENDTAB
  0
TABLE
  2
LAYER
 70
1
  0
LAYER
  2
0
 70
64
 62
7
  6
continuous
  0
ENDTAB
  0
TABLE
  2
STYLE
 70
1
  0
STYLE
  2
STANDARD
 70
0
 40
0
 41
1.0
 50
0.0
 71
0
 42
1
 3
ARIAL.TTF
 4

  0
ENDTAB
  0
TABLE
  2
VIEW
 70
0
  0
ENDTAB
  0
ENDSEC
  0
SECTION
  2
BLOCKS
  0
BLOCK
  8
0
  2
SHAPE2DVIEW
 70
0
 10
0.0
 20
0.0
 30
0.0
  3
SHAPE2DVIEW
  0
CIRCLE
  8
0
 62
0
 10
0.0
 20
0.0
 30
0.0
 40
100.0
  0
CIRCLE
  8
0
 62
0
 10
74.99999999999999
 20
30.0
 30
0.0
 40
8.0
  0
CIRCLE
  8
0
 62
0
 10
55.0
 20
42.0
 30
0.0
 40
1.5
  0
CIRCLE
  8
0
 62
0
 10
45.0
 20
60.0
 30
0.0
 40
1.5
  0
CIRCLE
  8
0
 62
0
 10
60.0
 20
60.0
 30
0.0
 40
1.5
  0
CIRCLE
  8
0
 62
0
 10
70.0
 20
-2.000000000000001
 30
0.0
 40
1.5
  0
CIRCLE
  8
0
 62
0
 10
79.0
 20
-2.000000000000001
 30
0.0
 40
1.5
  0
CIRCLE
  8
0
 62
0
 10
-15.0
 20
60.0
 30
0.0
 40
1.5
  0
CIRCLE
  8
0
 62
0
 10
-6.0
 20
40.0
 30
0.0
 40
1.5
  0
ARC
  8
0
 62
0
 10
-3.7e-16
 20
20.0
 30
0.0
 40
5.0
 50
-0.0
 51
-180.0
  0
LINE
  8
0
 62
0
 10
-5.0
 20
20.0
 30
0.0
 11
-5.0
 21
0.0
 31
0.0
  0
ARC
  8
0
 62
0
 10
0.0
 20
0.0
 30
0.0
 40
5.0
 50
180.0
 51
-0.0
  0
LINE
  8
0
 62
0
 10
5.0
 20
20.0
 30
0.0
 11
5.0
 21
0.0
 31
0.0
  0
CIRCLE
  8
0
 62
0
 10
15.0
 20
60.0
 30
0.0
 40
1.5
  0
CIRCLE
  8
0
 62
0
 10
45.0
 20
-35.0
 30
0.0
 40
1.5
  0
CIRCLE
  8
0
 62
0
 10
15.0
 20
-35.0
 30
0.0
 40
1.5
  0
CIRCLE
  8
0
 62
0
 10
55.0
 20
-20.0
 30
0.0
 40
1.5
  0
CIRCLE
  8
0
 62
0
 10
7.0
 20
-20.0
 30
0.0
 40
1.5
  0
CIRCLE
  8
0
 62
0
 10
70.0
 20
-20.0
 30
0.0
 40
1.5
  0
CIRCLE
  8
0
 62
0
 10
79.0
 20
-20.0
 30
0.0
 40
1.5
  0
CIRCLE
  8
0
 62
0
 10
-45.0
 20
60.0
 30
0.0
 40
1.5
  0
CIRCLE
  8
0
 62
0
 10
-60.0
 20
-60.0
 30
0.0
 40
1.5
  0
CIRCLE
  8
0
 62
0
 10
45.0
 20
-51.0
 30
0.0
 40
1.5
  0
CIRCLE
  8
0
 62
0
 10
15.0
 20
-51.0
 30
0.0
 40
1.5
  0
CIRCLE
  8
0
 62
0
 10
-55.0
 20
-18.000000000000004
 30
0.0
 40
1.5
  0
CIRCLE
  8
0
 62
0
 10
-6.0
 20
-18.000000000000004
 30
0.0
 40
1.5
  0
CIRCLE
  8
0
 62
0
 10
60.0
 20
-60.0
 30
0.0
 40
1.5
  0
CIRCLE
  8
0
 62
0
 10
-55.0
 20
40.0
 30
0.0
 40
1.5
  0
CIRCLE
  8
0
 62
0
 10
7.0
 20
42.0
 30
0.0
 40
1.5
  0
CIRCLE
  8
0
 62
0
 10
-60.0
 20
60.0
 30
0.0
 40
1.5
  0
CIRCLE
  8
0
 62
0
 10
-70.0
 20
-20.0
 30
0.0
 40
1.5
  0
CIRCLE
  8
0
 62
0
 10
-70.0
 20
-2.000000000000001
 30
0.0
 40
1.5
  0
CIRCLE
  8
0
 62
0
 10
-75.0
 20
30.0
 30
0.0
 40
8.0
  0
CIRCLE
  8
0
 62
0
 10
21.0
 20
-74.0
 30
0.0
 40
1.5
  0
CIRCLE
  8
0
 62
0
 10
21.0
 20
-65.0
 30
0.0
 40
1.5
  0
CIRCLE
  8
0
 62
0
 10
39.0
 20
-65.0
 30
0.0
 40
1.5
  0
CIRCLE
  8
0
 62
0
 10
39.0
 20
-74.0
 30
0.0
 40
1.5
  0
CIRCLE
  8
0
 62
0
 10
45.0
 20
76.0
 30
0.0
 40
1.5
  0
CIRCLE
  8
0
 62
0
 10
15.0
 20
76.0
 30
0.0
 40
1.5
  0
CIRCLE
  8
0
 62
0
 10
-15.0
 20
76.0
 30
0.0
 40
1.5
  0
CIRCLE
  8
0
 62
0
 10
-45.0
 20
76.0
 30
0.0
 40
1.5
  0
CIRCLE
  8
0
 62
0
 10
-79.0
 20
-20.0
 30
0.0
 40
1.5
  0
CIRCLE
  8
0
 62
0
 10
-79.0
 20
-2.000000000000001
 30
0.0
 40
1.5
  0
ENDBLK
  0
ENDSEC
  0
SECTION
  2
ENTITIES
  0
INSERT
  2
SHAPE2DVIEW
  8
0
 62
0
 10
0.0
 20
0.0
 30
0.0
  0
ENDSEC
  0
EOF
