  0
SECTION
  2
HEADER
  9
$ACADVER
  1
AC1009
  9
$INSBASE
 10
0.0
 20
0.0
 30
0.0
  9
$EXTMIN
 10
0.0
 20
0.0
 30
0.0
  9
$EXTMAX
 10
0.0
 20
0.0
 30
0.0
  0
ENDSEC
  0
SECTION
  2
TABLES
  0
TABLE
  2
VPORT
 70
0
  0
ENDTAB
  0
TABLE
  2
LTYPE
 70
1
  0
LTYPE
  2
CONTINUOUS
 70
0
  3
Solid line
 72
65
 73
0
 40
0.0
  0
ENDTAB
  0
TABLE
  2
LAYER
 70
1
  0
LAYER
  2
0
 70
64
 62
7
  6
continuous
  0
ENDTAB
  0
TABLE
  2
STYLE
 70
1
  0
STYLE
  2
STANDARD
 70
0
 40
0
 41
1.0
 50
0.0
 71
0
 42
1
 3
ARIAL.TTF
 4

  0
ENDTAB
  0
TABLE
  2
VIEW
 70
0
  0
ENDTAB
  0
ENDSEC
  0
SECTION
  2
BLOCKS
  0
BLOCK
  8
0
  2
SHAPE2DVIEW
 70
0
 10
0.0
 20
0.0
 30
0.0
  3
SHAPE2DVIEW
  0
ARC
  8
0
 62
0
 10
0.0
 20
0.0
 30
0.0
 40
100.0
 50
-162.5423968762779
 51
-149.9999999999985
  0
LINE
  8
0
 62
0
 10
-86.6025403784417
 20
-50.0
 30
0.0
 11
-70.0
 21
-50.0
 31
0.0
  0
LINE
  8
0
 62
0
 10
-65.0
 20
-29.999999999999993
 30
0.0
 11
-95.39392014169457
 21
-29.999999999999993
 31
0.0
  0
LINE
  8
0
 62
0
 10
-65.0
 20
30.0
 30
0.0
 11
-65.0
 21
-29.999999999999993
 31
0.0
  0
LINE
  8
0
 62
0
 10
-95.39392014169455
 20
30.0
 30
0.0
 11
-65.0
 21
30.0
 31
0.0
  0
ARC
  8
0
 62
0
 10
0.0
 20
0.0
 30
0.0
 40
100.0
 50
149.99999999999844
 51
162.54239687627793
  0
LINE
  8
0
 62
0
 10
-70.0
 20
-50.0
 30
0.0
 11
-70.0
 21
-60.0
 31
0.0
  0
LINE
  8
0
 62
0
 10
-70.0
 20
50.0
 30
0.0
 11
-86.60254037844169
 21
50.0
 31
0.0
  0
LINE
  8
0
 62
0
 10
-70.0
 20
-60.0
 30
0.0
 11
-80.00000000000053
 21
-60.0
 31
0.0
  0
LINE
  8
0
 62
0
 10
-70.0
 20
60.0
 30
0.0
 11
-70.0
 21
50.0
 31
0.0
  0
ARC
  8
0
 62
0
 10
0.0
 20
0.0
 30
0.0
 40
100.0
 50
-143.13010235415632
 51
-36.869897645843665
  0
LINE
  8
0
 62
0
 10
-80.00000000000054
 20
60.0
 30
0.0
 11
-70.0
 21
60.0
 31
0.0
  0
LINE
  8
0
 62
0
 10
80.00000000000053
 20
-60.0
 30
0.0
 11
70.00000000000001
 21
-60.0
 31
0.0
  0
ARC
  8
0
 62
0
 10
0.0
 20
0.0
 30
0.0
 40
100.0
 50
36.86989764584366
 51
143.13010235415635
  0
LINE
  8
0
 62
0
 10
70.00000000000001
 20
-60.0
 30
0.0
 11
70.00000000000001
 21
-50.0
 31
0.0
  0
LINE
  8
0
 62
0
 10
70.00000000000001
 20
60.0
 30
0.0
 11
80.00000000000054
 21
60.0
 31
0.0
  0
LINE
  8
0
 62
0
 10
70.00000000000001
 20
-50.0
 30
0.0
 11
86.6025403784417
 21
-50.0
 31
0.0
  0
LINE
  8
0
 62
0
 10
70.00000000000001
 20
50.0
 30
0.0
 11
70.00000000000001
 21
60.0
 31
0.0
  0
ARC
  8
0
 62
0
 10
0.0
 20
0.0
 30
0.0
 40
100.0
 50
-30.000000000001542
 51
-17.457603123722112
  0
LINE
  8
0
 62
0
 10
86.6025403784417
 20
50.0
 30
0.0
 11
70.00000000000001
 21
50.0
 31
0.0
  0
LINE
  8
0
 62
0
 10
95.39392014169455
 20
-30.000000000000032
 30
0.0
 11
65.0
 21
-30.000000000000032
 31
0.0
  0
ARC
  8
0
 62
0
 10
0.0
 20
0.0
 30
0.0
 40
100.0
 50
17.457603123722155
 51
30.000000000001542
  0
LINE
  8
0
 62
0
 10
65.0
 20
-30.000000000000032
 30
0.0
 11
65.0
 21
29.999999999999996
 31
0.0
  0
LINE
  8
0
 62
0
 10
65.0
 20
30.0
 30
0.0
 11
95.39392014169457
 21
30.0
 31
0.0
  0
CIRCLE
  8
0
 62
0
 10
-50.0
 20
34.5
 30
0.0
 40
1.5
  0
CIRCLE
  8
0
 62
0
 10
-50.0
 20
15.0
 30
0.0
 40
1.5
  0
CIRCLE
  8
0
 62
0
 10
-20.0
 20
15.0
 30
0.0
 40
1.5
  0
CIRCLE
  8
0
 62
0
 10
-50.0
 20
-15.0
 30
0.0
 40
1.5
  0
CIRCLE
  8
0
 62
0
 10
-20.0
 20
-15.0
 30
0.0
 40
1.5
  0
CIRCLE
  8
0
 62
0
 10
-15.0
 20
-71.0
 30
0.0
 40
1.5
  0
CIRCLE
  8
0
 62
0
 10
-40.0
 20
-60.0
 30
0.0
 40
1.5
  0
CIRCLE
  8
0
 62
0
 10
-40.0
 20
-69.0
 30
0.0
 40
1.5
  0
CIRCLE
  8
0
 62
0
 10
-15.0
 20
-55.0
 30
0.0
 40
1.5
  0
ARC
  8
0
 62
0
 10
-35.0
 20
-34.5
 30
0.0
 40
4.0
 50
90.0
 51
-90.0
  0
LINE
  8
0
 62
0
 10
-35.0
 20
-30.5
 30
0.0
 11
-20.0
 21
-30.5
 31
0.0
  0
LINE
  8
0
 62
0
 10
-35.0
 20
-38.5
 30
0.0
 11
-20.0
 21
-38.5
 31
0.0
  0
ARC
  8
0
 62
0
 10
-20.0
 20
-34.5
 30
0.0
 40
4.0
 50
-90.0
 51
90.0
  0
ARC
  8
0
 62
0
 10
-35.0
 20
-45.0
 30
0.0
 40
1.5
 50
90.0
 51
-90.0
  0
LINE
  8
0
 62
0
 10
-35.0
 20
-46.5
 30
0.0
 11
-30.0
 21
-46.5
 31
0.0
  0
ARC
  8
0
 62
0
 10
-30.0
 20
-45.0
 30
0.0
 40
1.5
 50
-90.0
 51
90.0
  0
LINE
  8
0
 62
0
 10
-35.0
 20
-43.5
 30
0.0
 11
-30.0
 21
-43.5
 31
0.0
  0
CIRCLE
  8
0
 62
0
 10
-50.0
 20
-34.5
 30
0.0
 40
1.5
  0
CIRCLE
  8
0
 62
0
 10
-7.0
 20
34.5
 30
0.0
 40
1.5
  0
CIRCLE
  8
0
 62
0
 10
7.0
 20
34.5
 30
0.0
 40
1.5
  0
CIRCLE
  8
0
 62
0
 10
0.0
 20
0.0
 30
0.0
 40
10.0
  0
CIRCLE
  8
0
 62
0
 10
7.0
 20
-34.5
 30
0.0
 40
1.5
  0
CIRCLE
  8
0
 62
0
 10
-7.0
 20
-34.5
 30
0.0
 40
1.5
  0
CIRCLE
  8
0
 62
0
 10
-20.0
 20
80.0
 30
0.0
 40
1.5
  0
CIRCLE
  8
0
 62
0
 10
-15.0
 20
71.0
 30
0.0
 40
1.5
  0
ARC
  8
0
 62
0
 10
-35.0
 20
80.0
 30
0.0
 40
1.5
 50
90.0
 51
-90.0
  0
LINE
  8
0
 62
0
 10
-35.0
 20
78.5
 30
0.0
 11
-30.0
 21
78.5
 31
0.0
  0
ARC
  8
0
 62
0
 10
-30.0
 20
80.0
 30
0.0
 40
1.5
 50
-90.0
 51
90.0
  0
LINE
  8
0
 62
0
 10
-35.0
 20
81.5
 30
0.0
 11
-30.0
 21
81.5
 31
0.0
  0
CIRCLE
  8
0
 62
0
 10
-40.0
 20
60.0
 30
0.0
 40
1.5
  0
CIRCLE
  8
0
 62
0
 10
-40.0
 20
69.0
 30
0.0
 40
1.5
  0
CIRCLE
  8
0
 62
0
 10
-15.0
 20
55.0
 30
0.0
 40
1.5
  0
ARC
  8
0
 62
0
 10
-35.0
 20
45.0
 30
0.0
 40
1.5
 50
90.0
 51
-90.0
  0
LINE
  8
0
 62
0
 10
-35.0
 20
43.5
 30
0.0
 11
-30.0
 21
43.5
 31
0.0
  0
ARC
  8
0
 62
0
 10
-30.0
 20
45.0
 30
0.0
 40
1.5
 50
-90.0
 51
90.00000000000014
  0
LINE
  8
0
 62
0
 10
-35.0
 20
46.5
 30
0.0
 11
-30.000000000000004
 21
46.5
 31
0.0
  0
CIRCLE
  8
0
 62
0
 10
40.0
 20
69.0
 30
0.0
 40
1.5
  0
CIRCLE
  8
0
 62
0
 10
40.0
 20
60.0
 30
0.0
 40
1.5
  0
CIRCLE
  8
0
 62
0
 10
15.0
 20
55.0
 30
0.0
 40
1.5
  0
CIRCLE
  8
0
 62
0
 10
15.0
 20
71.0
 30
0.0
 40
1.5
  0
ARC
  8
0
 62
0
 10
30.0
 20
45.0
 30
0.0
 40
1.5
 50
90.0
 51
-90.0
  0
LINE
  8
0
 62
0
 10
30.0
 20
43.5
 30
0.0
 11
35.0
 21
43.5
 31
0.0
  0
ARC
  8
0
 62
0
 10
35.0
 20
45.0
 30
0.0
 40
1.5
 50
-90.0
 51
90.0
  0
LINE
  8
0
 62
0
 10
30.0
 20
46.5
 30
0.0
 11
35.0
 21
46.5
 31
0.0
  0
ARC
  8
0
 62
0
 10
20.0
 20
-34.5
 30
0.0
 40
4.0
 50
90.0
 51
-90.0
  0
LINE
  8
0
 62
0
 10
20.0
 20
-30.5
 30
0.0
 11
35.0
 21
-30.5
 31
0.0
  0
LINE
  8
0
 62
0
 10
20.0
 20
-38.5
 30
0.0
 11
35.0
 21
-38.5
 31
0.0
  0
ARC
  8
0
 62
0
 10
35.0
 20
-34.5
 30
0.0
 40
4.0
 50
-90.0
 51
90.0
  0
CIRCLE
  8
0
 62
0
 10
20.0
 20
-15.0
 30
0.0
 40
1.5
  0
CIRCLE
  8
0
 62
0
 10
20.0
 20
15.0
 30
0.0
 40
1.5
  0
CIRCLE
  8
0
 62
0
 10
15.0
 20
-71.0
 30
0.0
 40
1.5
  0
CIRCLE
  8
0
 62
0
 10
15.0
 20
-55.0
 30
0.0
 40
1.5
  0
ARC
  8
0
 62
0
 10
30.0
 20
-45.0
 30
0.0
 40
1.5
 50
90.0
 51
-90.0
  0
LINE
  8
0
 62
0
 10
30.0
 20
-46.5
 30
0.0
 11
35.0
 21
-46.5
 31
0.0
  0
ARC
  8
0
 62
0
 10
35.0
 20
-45.0
 30
0.0
 40
1.5
 50
-90.0
 51
90.0
  0
LINE
  8
0
 62
0
 10
30.0
 20
-43.5
 30
0.0
 11
35.0
 21
-43.5
 31
0.0
  0
CIRCLE
  8
0
 62
0
 10
40.0
 20
-69.0
 30
0.0
 40
1.5
  0
CIRCLE
  8
0
 62
0
 10
40.0
 20
-60.0
 30
0.0
 40
1.5
  0
ARC
  8
0
 62
0
 10
30.0
 20
80.0
 30
0.0
 40
1.5
 50
90.0
 51
-90.0
  0
LINE
  8
0
 62
0
 10
30.0
 20
78.5
 30
0.0
 11
35.0
 21
78.5
 31
0.0
  0
ARC
  8
0
 62
0
 10
35.0
 20
80.0
 30
0.0
 40
1.5
 50
-90.0
 51
90.0
  0
LINE
  8
0
 62
0
 10
30.0
 20
81.5
 30
0.0
 11
35.0
 21
81.5
 31
0.0
  0
CIRCLE
  8
0
 62
0
 10
20.0
 20
80.0
 30
0.0
 40
1.5
  0
CIRCLE
  8
0
 62
0
 10
50.0
 20
-34.5
 30
0.0
 40
1.5
  0
CIRCLE
  8
0
 62
0
 10
50.0
 20
-15.0
 30
0.0
 40
1.5
  0
CIRCLE
  8
0
 62
0
 10
50.0
 20
34.5
 30
0.0
 40
1.5
  0
CIRCLE
  8
0
 62
0
 10
50.0
 20
15.0
 30
0.0
 40
1.5
  0
CIRCLE
  8
0
 62
0
 10
-60.0
 20
60.0
 30
0.0
 40
1.5
  0
CIRCLE
  8
0
 62
0
 10
-60.0
 20
-60.0
 30
0.0
 40
1.5
  0
ARC
  8
0
 62
0
 10
-35.0
 20
-80.0
 30
0.0
 40
1.5
 50
90.0
 51
-90.0
  0
LINE
  8
0
 62
0
 10
-35.0
 20
-81.5
 30
0.0
 11
-30.0
 21
-81.5
 31
0.0
  0
ARC
  8
0
 62
0
 10
-30.0
 20
-80.0
 30
0.0
 40
1.5
 50
-90.0
 51
90.0
  0
LINE
  8
0
 62
0
 10
-35.0
 20
-78.5
 30
0.0
 11
-30.0
 21
-78.5
 31
0.0
  0
CIRCLE
  8
0
 62
0
 10
-20.0
 20
-80.0
 30
0.0
 40
1.5
  0
CIRCLE
  8
0
 62
0
 10
20.0
 20
-80.0
 30
0.0
 40
1.5
  0
ARC
  8
0
 62
0
 10
30.0
 20
-80.0
 30
0.0
 40
1.5
 50
90.00000000000014
 51
-90.0
  0
LINE
  8
0
 62
0
 10
30.0
 20
-81.5
 30
0.0
 11
35.0
 21
-81.5
 31
0.0
  0
ARC
  8
0
 62
0
 10
35.0
 20
-80.0
 30
0.0
 40
1.5
 50
-90.0
 51
90.0
  0
LINE
  8
0
 62
0
 10
29.999999999999996
 20
-78.5
 30
0.0
 11
35.0
 21
-78.5
 31
0.0
  0
CIRCLE
  8
0
 62
0
 10
60.00000000000001
 20
60.0
 30
0.0
 40
1.5
  0
CIRCLE
  8
0
 62
0
 10
60.00000000000001
 20
-60.0
 30
0.0
 40
1.5
  0
ENDBLK
  0
ENDSEC
  0
SECTION
  2
ENTITIES
  0
INSERT
  2
SHAPE2DVIEW
  8
0
 62
0
 10
0.0
 20
0.0
 30
0.0
  0
ENDSEC
  0
EOF
